<svg width="26" height="26" viewBox="0 0 26 26" fill="none" xmlns="http://www.w3.org/2000/svg">
<path d="M21.6667 2.16667H8.66667C7.475 2.16667 6.5 3.14167 6.5 4.33333V17.3333C6.5 18.525 7.475 19.5 8.66667 19.5H21.6667C22.8583 19.5 23.8333 18.525 23.8333 17.3333V4.33333C23.8333 3.14167 22.8583 2.16667 21.6667 2.16667ZM12.4583 10.2917C12.4583 11.1908 11.7325 11.9167 10.8333 11.9167H9.75V14.0833H8.125V7.58333H10.8333C11.7325 7.58333 12.4583 8.30917 12.4583 9.20833V10.2917ZM17.875 12.4583C17.875 13.3575 17.1492 14.0833 16.25 14.0833H13.5417V7.58333H16.25C17.1492 7.58333 17.875 8.30917 17.875 9.20833V12.4583ZM22.2083 9.20833H20.5833V10.2917H22.2083V11.9167H20.5833V14.0833H18.9583V7.58333H22.2083V9.20833ZM9.75 10.2917H10.8333V9.20833H9.75V10.2917ZM4.33333 6.5H2.16667V21.6667C2.16667 22.8583 3.14167 23.8333 4.33333 23.8333H19.5V21.6667H4.33333V6.5ZM15.1667 12.4583H16.25V9.20833H15.1667V12.4583Z" fill="#FCFCFC"/>
</svg>
