<svg width="25" height="25" viewBox="0 0 25 25" fill="none" xmlns="http://www.w3.org/2000/svg">
<path d="M19.7917 4.16667H18.75V2.08333H16.6667V4.16667H8.33333V2.08333H6.25V4.16667H5.20833C4.05208 4.16667 3.13542 5.10417 3.13542 6.25L3.125 20.8333C3.125 21.9792 4.05208 22.9167 5.20833 22.9167H19.7917C20.9375 22.9167 21.875 21.9792 21.875 20.8333V6.25C21.875 5.10417 20.9375 4.16667 19.7917 4.16667ZM19.7917 20.8333H5.20833V10.4167H19.7917V20.8333ZM9.375 14.5833H7.29167V12.5H9.375V14.5833ZM13.5417 14.5833H11.4583V12.5H13.5417V14.5833ZM17.7083 14.5833H15.625V12.5H17.7083V14.5833ZM9.375 18.75H7.29167V16.6667H9.375V18.75ZM13.5417 18.75H11.4583V16.6667H13.5417V18.75ZM17.7083 18.75H15.625V16.6667H17.7083V18.75Z" fill="#FCFCFC"/>
</svg>
